<?xml version="1.0" standalone="no"?>
<!DOCTYPE svg PUBLIC "-//W3C//DTD SVG 20010904//EN"
 "http://www.w3.org/TR/2001/REC-SVG-20010904/DTD/svg10.dtd">
<svg version="1.0" xmlns="http://www.w3.org/2000/svg"
 width="70.000000pt" height="70.000000pt" viewBox="0 0 70.000000 70.000000"
 preserveAspectRatio="xMidYMid meet">
<metadata>
Created by potrace 1.11, written by Peter Selinger 2001-2013
</metadata>
<g transform="translate(0.000000,70.000000) scale(0.100000,-0.100000)"
fill="#000000" stroke="none">
<path d="M263 676 c-194 -63 -292 -282 -209 -463 33 -73 103 -144 174 -176 66
-30 188 -30 254 0 66 30 143 105 175 172 23 47 27 69 27 141 0 72 -4 94 -27
141 -32 67 -109 142 -175 171 -58 26 -162 33 -219 14z m205 -148 c13 -13 17
-58 5 -58 -3 0 -15 8 -25 17 -21 19 -26 15 -67 -63 l-24 -44 22 -24 c39 -41
68 -41 90 1 10 20 9 22 -26 25 -35 3 -37 4 -17 15 35 20 97 26 117 11 12 -9
22 -41 32 -103 8 -50 15 -93 15 -96 0 -5 -45 -29 -54 -29 -2 0 -6 18 -10 40
-6 39 -7 40 -47 40 -34 0 -49 -7 -90 -44 -55 -50 -99 -65 -135 -46 -51 28 -32
79 43 112 31 13 42 23 35 30 -7 7 -28 2 -66 -17 -80 -39 -144 -27 -167 32 -6
16 -5 30 3 43 12 19 14 18 44 -11 38 -36 107 -50 137 -27 18 14 18 15 -3 55
-27 53 -36 108 -20 128 15 18 40 20 40 3 0 -7 11 -35 23 -62 l23 -50 32 56
c39 70 66 90 90 66z"/>
<path d="M477 320 c-18 -29 -18 -29 8 -36 33 -8 37 -4 29 34 -8 40 -15 40 -37
2z"/>
<path d="M415 300 c-3 -5 -1 -10 4 -10 6 0 11 5 11 10 0 6 -2 10 -4 10 -3 0
-8 -4 -11 -10z"/>
<path d="M291 246 c-18 -21 -2 -46 28 -46 17 0 38 11 56 30 l29 30 -51 0 c-31
0 -55 -5 -62 -14z"/>
</g>
</svg>
