<?xml version="1.0" encoding="utf-8"?>
<!-- Generator: Adobe Illustrator 24.1.1, SVG Export Plug-In . SVG Version: 6.00 Build 0)  -->
<svg version="1.1" id="Layer_1" xmlns="http://www.w3.org/2000/svg" xmlns:xlink="http://www.w3.org/1999/xlink" x="0px" y="0px"
	 viewBox="0 0 141.73 141.73" style="enable-background:new 0 0 141.73 141.73;" xml:space="preserve">
<style type="text/css">
	.st0{fill:#7EA584;}
</style>
<path class="st0" d="M75.11,70.87l19.45-19.45c1.17-1.17,1.17-3.07,0-4.24c-1.17-1.17-3.07-1.17-4.24,0L70.87,66.62L51.41,47.17
	c-1.17-1.17-3.07-1.17-4.24,0c-1.17,1.17-1.17,3.07,0,4.24l19.45,19.45L47.17,90.32c-1.17,1.17-1.17,3.07,0,4.24
	c0.59,0.59,1.35,0.88,2.12,0.88s1.54-0.29,2.12-0.88l19.45-19.45l19.45,19.45c0.59,0.59,1.35,0.88,2.12,0.88s1.54-0.29,2.12-0.88
	c1.17-1.17,1.17-3.07,0-4.24L75.11,70.87z"/>
</svg>
